<?xml version="1.0" encoding="UTF-8"?>
<svg id="Calque_1" data-name="Calque 1" xmlns="http://www.w3.org/2000/svg" version="1.1" viewBox="0 0 145.7 149.8">
  <defs>
    <style>
      .cls-1 {
        fill: #fff;
        stroke-width: 0px;
      }
    </style>
  </defs>
  <path class="cls-1" d="M98.3,148.6c-8.2.4-15.7.8-23.5,1.3-3.8-32.6-7.5-64.8-11.3-97.7,12,.9,23.5,1.7,34.8,2.5v93.9h0Z"/>
  <path class="cls-1" d="M68.6,148.3c-8.5,0-16.3.1-24.1-.1-1,0-2.8-1.7-3-2.8-5.1-29.8-10-59.7-15.1-90.3,10.1.6,19.8,1.2,29.9,1.8,4.1,30.3,8.1,60.2,12.3,91.4Z"/>
  <path class="cls-1" d="M72.8,47.3c-10.5,2.7-18.9.4-27.2-2.8-3.9-1.5-7.8-3.1-11.8-4-9-2-17.2-.3-23.5,8.2-.4-3.4-.6-6-.9-8.8C6.3,39.3,3.5,38.8,0,38.1c17.5-14.9,32.9-5.8,48.3,3,.3-.4.6-.9.9-1.3-.6-.3-1.3-.5-1.9-.9-.6-.3-1.1-.8-1.5-1.2-6.3-5.7-7.8-12.2-4.4-19.8,4.3-9.8,14.7-13.1,23-6.2,4.4,3.7,7.5,9.1,10.8,14.1,1.5,2.3,2.1,5.2,3.5,9,.7-4,1-6.9,1.7-9.8,2.8-11.9,9.5-20.4,21.6-23.9,7.8-2.3,14.2-.2,18.2,5.5,4.2,6.2,4.5,14.3-.4,20-4.2,4.9-9.5,8.8-14.3,13-1.2,1.1-2.7,1.8-4.5,3,29.4-2.1,36.8-.6,44.8,9.1-2.4.5-4.6.9-6.9,1.4-.5,2.6-1,5.2-1.6,8.2-14.1-15.6-32.2-14-51.6-12,3.8-3.3,6.8-5.6,9.4-8.2,4.4-4.3,8.8-8.6,12.7-13.4,3.9-4.8,3.8-9.4.6-12.7-3.4-3.5-8.9-3.6-13.7,0-8.1,6.1-10.6,15-12.2,24.4-.5,2.7-.8,5.4-1.2,8.8-3.2-6.2-5.7-12-9.1-17.3-2.5-4-5.7-7.8-9.3-10.9-3.9-3.4-8.2-2.8-11.7.5-3.2,3.2-3.8,7.3-.1,11.1,4.5,4.6,9.9,8.3,15,12.2,1.7,1.3,3.7,2,6.8,3.6h0Z"/>
  <path class="cls-1" d="M106.2,66.5c9.1,2,17.5,3.8,26.3,5.8-1.5,9.7-3,19-4.5,28.3-1.9,12-4,24-5.8,36-.4,3-1.5,4.4-4.7,4.2-4.6-.2-9.2,0-14.4,0,1-24.7,2-49.2,3-74.2Z"/>
</svg>