<?xml version="1.0" encoding="UTF-8"?>
<svg id="Calque_2" data-name="Calque 2" xmlns="http://www.w3.org/2000/svg" viewBox="0 0 534.9 273.88">
  <defs>
    <style>
      .cls-1 {
        fill: #1b212f;
      }

      .cls-1, .cls-2 {
        stroke-width: 0px;
      }

      .cls-2 {
        fill: #fff;
      }
    </style>
  </defs>
  <path class="cls-2" d="M28.15,4.92c2.44-2.13,4.15-2.23,6.86-2.32C151.35-.15,437.37-7.56,513.56,27.18c7.49,4.55,2.38,15.3.69,22.12-4.51,15.12-11.06,32.74-14.3,46.97-.82,5.27,1.76,7.53,8.07,8.24,3.56.45,8.03.44,12.19.56,7.19.47,14.37-.03,14.7,6.59-.02,2.05-.39,4.58-.96,6.82-2.44,10.32-6.95,27.49-12.58,41.25-4.33,11.08-11.3,21.28-22.23,26.64-6.84,3.68-16.14,6-23.34,7.41-5.21,1.23-11.66,1.63-5.72,6.25,6.23,4.89,18.03,9.52,16.99,19.31-.34,4.66-1.63,9.52-2.77,14.19-3.32,12.06-7.26,25.17-13.61,35.8-2.98,4.72-5.27,4.84-10.53,4.39-2.47-.11-5.5-.24-9.03-.39-79.45-3.97-397.84-16.44-431.08-19.33-1.02-.69-1.46-2.39-1.77-6.25-.78-13.9-1.05-39.11,12.22-57.65,3.14-4.41,7.95-8.86,11.54-12.38,1.71-1.7,2.72-2.94,2.65-3.8.58-1.49-5.64-1.99-8.9-1.98-6.15-.14-14.22-.01-20.74-.12-5.48-.34-12.94.49-14.9-3.74-1.29-15.28,6.53-52.49,27.62-69.44,7.69-6.29,17.71-10.06,27.26-11.88,4.63-1.09,10.1-1.25,13.75-2.36.38-.42-3.04-1-8.36-1.58-10.77-1.16-23.25-2.04-34.31-2.81-4.71-.33-9.26-.59-13.2-.94-5.69-.73-11.92-.6-11.76-7.05C3.69,55.24,15.12,16.94,28.08,4.97l.07-.06Z"/>
  <g>
    <path class="cls-1" d="M152.35,69.07v30.23c0,4.64-.42,8.17-1.25,10.6-.83,2.43-2.46,4.35-4.87,5.77-2.41,1.42-5.68,2.13-9.81,2.13-3.63,0-6.91-.39-9.84-1.16v-11.46c2.06.59,3.98.88,5.77.88,2.11,0,3.61-.49,4.5-1.46.89-.97,1.34-2.74,1.34-5.29v-30.23h14.17Z"/>
    <path class="cls-1" d="M199.14,69.07v31.78c0,6.02-1.79,10.35-5.36,12.99-3.57,2.64-8.23,3.96-13.97,3.96-6.05,0-10.9-1.27-14.57-3.8-3.67-2.53-5.5-6.66-5.5-12.38v-32.55h14.98v30.83c0,2.3.48,3.97,1.45,5.03s2.52,1.58,4.65,1.58c1.78,0,3.23-.38,4.36-1.14,1.13-.76,1.81-1.62,2.03-2.58.22-.96.33-2.84.33-5.62v-28.09h11.6Z"/>
    <path class="cls-1" d="M202.06,103.17l13.68-2.46c1.15,3.87,4.1,5.8,8.86,5.8,3.7,0,5.55-.98,5.55-2.95,0-1.03-.43-1.83-1.28-2.41-.86-.57-2.39-1.08-4.59-1.53-8.42-1.61-13.82-3.72-16.21-6.32-2.39-2.6-3.58-5.66-3.58-9.18,0-4.52,1.72-8.29,5.15-11.29,3.43-3,8.37-4.5,14.82-4.5,9.77,0,16.23,3.93,19.37,11.78l-12.2,3.69c-1.27-3.21-3.83-4.82-7.7-4.82-3.21,0-4.82,1-4.82,2.99,0,.89.36,1.58,1.09,2.07.73.49,2.13.96,4.22,1.4,5.74,1.21,9.82,2.29,12.24,3.22,2.41.93,4.43,2.53,6.05,4.8,1.62,2.26,2.42,4.93,2.42,8,0,4.85-1.97,8.79-5.91,11.8-3.94,3.01-9.11,4.52-15.5,4.52-11.7,0-18.91-4.87-21.66-14.62Z"/>
    <path class="cls-1" d="M276.42,117.31c-1.64.33-3.26.49-4.85.49-6.91,0-12.47-2.29-16.66-6.86-4.2-4.57-6.29-10.49-6.29-17.75s2.03-13.2,6.1-17.86c4.07-4.66,9.71-7,16.93-7,6.68,0,12.12,2.2,16.33,6.61,4.21,4.41,6.31,10.29,6.31,17.65,0,8.93-2.87,15.74-8.61,20.43.47,1.38,1.96,2.07,4.46,2.07,1.12,0,2.45-.15,3.97-.46v10.86c-2.6.26-4.64.39-6.12.39-2.62,0-4.96-.54-7.01-1.63s-3.57-3.4-4.55-6.94ZM271.43,106.9c2.48,0,4.27-1.08,5.36-3.25,1.09-2.17,1.63-6.13,1.63-11.9,0-8.34-2.24-12.52-6.71-12.52-4.83,0-7.24,4.76-7.24,14.27,0,8.93,2.32,13.39,6.96,13.39Z"/>
    <path class="cls-1" d="M339.42,69.07v31.78c0,6.02-1.79,10.35-5.36,12.99s-8.23,3.96-13.97,3.96c-6.05,0-10.9-1.27-14.57-3.8s-5.5-6.66-5.5-12.38v-32.55h14.98v30.83c0,2.3.48,3.97,1.46,5.03.97,1.05,2.52,1.58,4.65,1.58,1.78,0,3.23-.38,4.36-1.14,1.13-.76,1.81-1.62,2.03-2.58.22-.96.33-2.84.33-5.62v-28.09h11.6Z"/>
    <path class="cls-1" d="M359.07,69.07v10.05l-6.57,10.65h-5.55l4.85-9.56h-4.85v-11.14h12.13Z"/>
    <path class="cls-1" d="M393.55,117.06l-2.71-9.46h-12.86l-2.88,9.46h-11.96l14.81-47.99h15.57l15.05,47.99h-15.03ZM393.7,60.14l-1.83,4.82-16.8-5.84,2.57-6.86,16.07,7.88ZM380.45,97.13h7.76l-3.88-13.92-3.88,13.92Z"/>
    <path class="cls-1" d="M208.32,179.8v11.04h-17.82v-11.04h17.82Z"/>
    <path class="cls-1" d="M239.47,192.77h11.32v10.69h-36.91v-10.69h11.85v-22.82c-4.5,1.99-8.02,3.16-10.55,3.52v-10.79c6.82-1.48,11.45-4.12,13.89-7.95h10.41v38.04Z"/>
    <path class="cls-1" d="M288.93,167.32h-20.11l-.56,6.79c2.6-1.8,5.48-2.71,8.65-2.71,4.17,0,7.82,1.43,10.93,4.29s4.68,6.68,4.68,11.46c0,5.04-1.82,9.14-5.45,12.3s-8.27,4.75-13.92,4.75c-4.92,0-9.18-1.29-12.78-3.88-3.6-2.59-5.81-6.21-6.63-10.85l12.38-1.51c.82,3.49,3.06,5.24,6.71,5.24,1.85,0,3.3-.56,4.34-1.69s1.56-2.5,1.56-4.11c0-1.83-.6-3.26-1.79-4.29s-2.61-1.55-4.25-1.55c-2.44,0-4.31,1.01-5.62,3.02l-11-1.55,2.11-27.56h32.03l-1.27,11.85Z"/>
    <path class="cls-1" d="M306.09,179.8c-2.98,0-5.34-1.13-7.08-3.39s-2.62-5.27-2.62-9.02.9-6.83,2.69-9.02,4.18-3.29,7.15-3.29,5.48,1.17,7.17,3.5,2.53,5.34,2.53,9.02-.9,6.72-2.71,8.91-4.18,3.29-7.14,3.29ZM337.62,155.47l-29.15,47.99h-6.64l29.36-47.99h6.43ZM306.11,174.56c1.65,0,2.48-2.34,2.48-7.03,0-2.13-.16-3.87-.47-5.2-.31-1.34-.97-2-1.97-2-1.61,0-2.41,2.26-2.41,6.79,0,2.79.17,4.73.51,5.82s.96,1.63,1.87,1.63ZM333.39,203.81c-2.96,0-5.31-1.13-7.06-3.39-1.75-2.26-2.62-5.26-2.62-9s.89-6.82,2.68-9.02,4.17-3.3,7.15-3.3,5.23,1.09,7.03,3.28,2.69,5.27,2.69,9.25c0,3.72-.9,6.68-2.71,8.88-1.81,2.2-4.19,3.3-7.15,3.3ZM333.46,198.57c1.68,0,2.51-2.34,2.51-7.01,0-2.13-.15-3.86-.46-5.21s-.97-2.02-1.98-2.02c-1.65,0-2.48,2.24-2.48,6.73,0,2.85.17,4.82.51,5.89.34,1.08.97,1.61,1.89,1.61Z"/>
  </g>
</svg>