<?xml version="1.0" encoding="UTF-8"?>
<svg id="Calque_1" data-name="Calque 1" xmlns="http://www.w3.org/2000/svg" viewBox="0 0 341.66 341.38">
  <defs>
    <style>
      .cls-1 {
        fill: #000;
        stroke-width: 0px;
      }
    </style>
  </defs>
  <path class="cls-1" d="M256.29,135.42c-.17,18.06-6.92,41.44-20.91,62.58-2.17,3.28-1.99,5.02.85,7.84,32.75,32.51,65.35,65.16,97.93,97.84,8.4,8.43,9.8,19.23,3.97,28.12-7.52,11.46-23.07,12.93-33.32,2.87-14.02-13.77-27.82-27.76-41.72-41.66-19.08-19.08-38.21-38.1-57.17-57.29-2.63-2.66-4.29-2.77-7.45-.73C120.1,285.68,16.92,240.07,1.7,148.12-10.33,75.46,43.05,7,116.78.51c75.27-6.62,139.56,52.21,139.51,134.92ZM128.21,213.33c47.3,0,85.32-38.21,85.28-85.68-.04-47.03-38.25-85.03-85.44-84.96-47.29.07-85.09,38.24-85.03,85.86.06,46.65,38.39,84.78,85.19,84.77Z"/>
</svg>