<?xml version="1.0" encoding="UTF-8"?>
<svg id="Calque_1" data-name="Calque 1" xmlns="http://www.w3.org/2000/svg" version="1.1" viewBox="0 0 391.3 391.2">
  <defs>
    <style>
      .cls-1 {
        fill: #fff;
        stroke-width: 0px;
      }
    </style>
  </defs>
  <path class="cls-1" d="M0,14.8C2.6,9.7,5,5,7.5,0c11.3,5.5,22.4,10.9,33.5,16.3,16.5,8,32.9,16.2,49.5,24.1,2.7,1.3,3.9,3,4.5,5.8,2.9,14.3,6,28.6,9,43.2h287.3c-1.8,8.8-3.5,17.2-5.2,25.6-7.8,37.9-15.6,75.8-23.2,113.7-.3,1.5.6,3.7,1.7,5.1,4.3,5.4,9.5,10.2,13.1,16,10.5,17,6.3,35.7-10,47.4-7.5,5.4-15.9,8-25,8-9.3,0-18.6,0-28,0H113.6v-16.5h5.1c73.7,0,147.5,0,221.2,0,7.9,0,14.6-2,20.1-7.8,6.2-6.5,7.5-14.8,3.2-22.7-1.1-2-2.4-3.8-3.8-5.6-4.7-6-10.2-9.1-18.6-9-72.1.4-144.3.2-216.4.2h-5.4c-2.2-10.1-4.3-20-6.3-29.9-11-52.6-21.9-105.1-33-157.6-.4-1.7-2.1-3.7-3.7-4.5C52,40,27.9,28.4,3.8,16.8c-1.2-.6-2.3-1.2-3.8-2ZM371.3,106.3H107.7c.1,1.1.1,2.1.3,3,8.1,37.8,16.2,75.6,24.1,113.4.7,3.5,2,4.4,5.4,4.4,68.1-.1,136.3,0,204.4,0h4.3c8.4-40.4,16.6-80.4,25-120.7h0Z"/>
  <path class="cls-1" d="M362.1,360.4c-.2,17.5-14.4,31.2-31.9,30.9-17.4-.3-31.7-14.8-31.3-31.8.4-17.4,14.7-31.5,31.9-31.2,17.5.3,31.5,14.6,31.3,32.1ZM330.5,374.6c8.7,0,15.1-6.5,15.1-15.6,0-7.7-6.6-14-14.9-14.1-8.4,0-15.1,6.5-15.2,14.7,0,8.2,6.6,14.9,14.9,15h0Z"/>
  <path class="cls-1" d="M129.1,359.8c0-17.2,14.1-31.5,31.4-31.6,17.1-.1,31.6,14.2,31.8,31.4.1,17-14.3,31.4-31.5,31.6-17.2.1-31.5-14.1-31.6-31.4h0ZM161.1,344.9c-8.6-.2-15.4,6.3-15.5,14.7,0,8.1,6.4,14.7,14.5,14.9,8.4.2,15.2-6.1,15.4-14.4.3-8.2-6.2-15.1-14.5-15.3h0Z"/>
</svg>